<!DOCTYPE svg PUBLIC "-//W3C//DTD SVG 1.1//EN" "http://www.w3.org/Graphics/SVG/1.1/DTD/svg11.dtd">
<!-- Uploaded to: SVG Repo, www.svgrepo.com, Transformed by: SVG Repo Mixer Tools -->
<svg width="800px" height="800px" viewBox="0 0 14 14" role="img" focusable="false" aria-hidden="true" xmlns="http://www.w3.org/2000/svg" fill="#000000">
<g id="SVGRepo_bgCarrier" stroke-width="0"/>
<g id="SVGRepo_tracerCarrier" stroke-linecap="round" stroke-linejoin="round"/>
<g id="SVGRepo_iconCarrier"> <g fill="#2495de"> <path d="M11.2 3.7c-.99 0-1.8-.27-1.8-.6v.6c0 .33.81.6 1.8.6s1.8-.27 1.8-.6v-.6c0 .33-.81.6-1.8.6z"/> <path d="M11.2 2.8c-.99 0-1.8-.27-1.8-.6v.6c0 .33.81.6 1.8.6s1.8-.27 1.8-.6v-.6c0 .33-.81.6-1.8.6zm0 1.8c-.99 0-1.8-.27-1.8-.6v.6c0 .33.81.6 1.8.6s1.8-.27 1.8-.6V4c0 .33-.81.6-1.8.6z"/> <path d="M11.2 5.5c-.99 0-1.8-.27-1.8-.6v.6c0 .33.81.6 1.8.6s1.8-.27 1.8-.6v-.6c0 .33-.81.6-1.8.6z"/> <path d="M11.2 6.4c-.99 0-1.8-.27-1.8-.6v.6c0 .33.81.6 1.8.6s1.8-.27 1.8-.6v-.6c0 .33-.81.6-1.8.6z"/> <path d="M11.2 7.3c-.99 0-1.8-.27-1.8-.6v.6c0 .33.81.6 1.8.6s1.8-.27 1.8-.6v-.6c0 .33-.81.6-1.8.6z"/> <path d="M11.2 8.2c-.99 0-1.8-.27-1.8-.6v.6c0 .33.81.6 1.8.6s1.8-.27 1.8-.6v-.6c0 .33-.81.6-1.8.6z"/> <path d="M11.2 9.1c-.99 0-1.8-.27-1.8-.6v.6c0 .33.81.6 1.8.6s1.8-.27 1.8-.6v-.6c0 .33-.81.6-1.8.6z"/> <path d="M11.2 10c-.99 0-1.8-.27-1.8-.6v.6c0 .33.81.6 1.8.6s1.8-.27 1.8-.6v-.6c0 .33-.81.6-1.8.6z"/> <path d="M11.2 10.9c-.99 0-1.8-.27-1.8-.6v.6c0 .33.81.6 1.8.6s1.8-.27 1.8-.6v-.6c0 .33-.81.6-1.8.6z"/> <path d="M11.2 11.8c-.99 0-1.8-.27-1.8-.6v.6c0 .33.81.6 1.8.6s1.8-.27 1.8-.6v-.6c0 .33-.81.6-1.8.6z"/> </g> <g fill="#5db4ea" transform="matrix(.3 0 0 .3 -.2 -.2)"> <ellipse cx="38" cy="8" rx="6" ry="2"/> <path d="M38 12c-2.8 0-5.1-.6-5.8-1.5-.1.2-.2.3-.2.5 0 1.1 2.7 2 6 2s6-.9 6-2c0-.2-.1-.3-.2-.5-.7.9-3 1.5-5.8 1.5zm0 3c-2.8 0-5.1-.6-5.8-1.5-.1.2-.2.3-.2.5 0 1.1 2.7 2 6 2s6-.9 6-2c0-.2-.1-.3-.2-.5-.7.9-3 1.5-5.8 1.5zm0 3c-2.8 0-5.1-.6-5.8-1.5-.1.2-.2.3-.2.5 0 1.1 2.7 2 6 2s6-.9 6-2c0-.2-.1-.3-.2-.5-.7.9-3 1.5-5.8 1.5zm0 3c-2.8 0-5.1-.6-5.8-1.5-.1.2-.2.3-.2.5 0 1.1 2.7 2 6 2s6-.9 6-2c0-.2-.1-.3-.2-.5-.7.9-3 1.5-5.8 1.5zm0 3c-2.8 0-5.1-.6-5.8-1.5-.1.2-.2.3-.2.5 0 1.1 2.7 2 6 2s6-.9 6-2c0-.2-.1-.3-.2-.5-.7.9-3 1.5-5.8 1.5zm0 3c-2.8 0-5.1-.6-5.8-1.5-.1.2-.2.3-.2.5 0 1.1 2.7 2 6 2s6-.9 6-2c0-.2-.1-.3-.2-.5-.7.9-3 1.5-5.8 1.5zm0 3c-2.8 0-5.1-.6-5.8-1.5-.1.2-.2.3-.2.5 0 1.1 2.7 2 6 2s6-.9 6-2c0-.2-.1-.3-.2-.5-.7.9-3 1.5-5.8 1.5zm0 3c-2.8 0-5.1-.6-5.8-1.5-.1.2-.2.3-.2.5 0 1.1 2.7 2 6 2s6-.9 6-2c0-.2-.1-.3-.2-.5-.7.9-3 1.5-5.8 1.5zm0 3c-2.8 0-5.1-.6-5.8-1.5-.1.2-.2.3-.2.5 0 1.1 2.7 2 6 2s6-.9 6-2c0-.2-.1-.3-.2-.5-.7.9-3 1.5-5.8 1.5zm0 3c-2.8 0-5.1-.6-5.8-1.5-.1.2-.2.3-.2.5 0 1.1 2.7 2 6 2s6-.9 6-2c0-.2-.1-.3-.2-.5-.7.9-3 1.5-5.8 1.5z"/> </g> <g fill="#2495de"> <path d="M2.8 5.5c-.99 0-1.8-.27-1.8-.6v.6c0 .33.81.6 1.8.6s1.8-.27 1.8-.6v-.6c0 .33-.81.6-1.8.6z"/> <path d="M2.8 4.6C1.81 4.6 1 4.33 1 4v.6c0 .33.81.6 1.8.6s1.8-.27 1.8-.6V4c0 .33-.81.6-1.8.6zm0 1.8c-.99 0-1.8-.27-1.8-.6v.6c0 .33.81.6 1.8.6s1.8-.27 1.8-.6v-.6c0 .33-.81.6-1.8.6z"/> <path d="M2.8 7.3c-.99 0-1.8-.27-1.8-.6v.6c0 .33.81.6 1.8.6s1.8-.27 1.8-.6v-.6c0 .33-.81.6-1.8.6z"/> <path d="M2.8 8.2c-.99 0-1.8-.27-1.8-.6v.6c0 .33.81.6 1.8.6s1.8-.27 1.8-.6v-.6c0 .33-.81.6-1.8.6z"/> <path d="M2.8 9.1c-.99 0-1.8-.27-1.8-.6v.6c0 .33.81.6 1.8.6s1.8-.27 1.8-.6v-.6c0 .33-.81.6-1.8.6z"/> <path d="M2.8 10C1.81 10 1 9.73 1 9.4v.6c0 .33.81.6 1.8.6s1.8-.27 1.8-.6v-.6c0 .33-.81.6-1.8.6z"/> <path d="M2.8 10.9c-.99 0-1.8-.27-1.8-.6v.6c0 .33.81.6 1.8.6s1.8-.27 1.8-.6v-.6c0 .33-.81.6-1.8.6z"/> <path d="M2.8 11.8c-.99 0-1.8-.27-1.8-.6v.6c0 .33.81.6 1.8.6s1.8-.27 1.8-.6v-.6c0 .33-.81.6-1.8.6z"/> </g> <g fill="#5db4ea" transform="matrix(.3 0 0 .3 -.2 -.2)"> <ellipse cx="10" cy="14" rx="6" ry="2"/> <path d="M10 18c-2.8 0-5.1-.6-5.8-1.5-.1.2-.2.3-.2.5 0 1.1 2.7 2 6 2s6-.9 6-2c0-.2-.1-.3-.2-.5-.7.9-3 1.5-5.8 1.5zm0 3c-2.8 0-5.1-.6-5.8-1.5-.1.2-.2.3-.2.5 0 1.1 2.7 2 6 2s6-.9 6-2c0-.2-.1-.3-.2-.5-.7.9-3 1.5-5.8 1.5zm0 3c-2.8 0-5.1-.6-5.8-1.5-.1.2-.2.3-.2.5 0 1.1 2.7 2 6 2s6-.9 6-2c0-.2-.1-.3-.2-.5-.7.9-3 1.5-5.8 1.5zm0 3c-2.8 0-5.1-.6-5.8-1.5-.1.2-.2.3-.2.5 0 1.1 2.7 2 6 2s6-.9 6-2c0-.2-.1-.3-.2-.5-.7.9-3 1.5-5.8 1.5zm0 3c-2.8 0-5.1-.6-5.8-1.5-.1.2-.2.3-.2.5 0 1.1 2.7 2 6 2s6-.9 6-2c0-.2-.1-.3-.2-.5-.7.9-3 1.5-5.8 1.5zm0 3c-2.8 0-5.1-.6-5.8-1.5-.1.2-.2.3-.2.5 0 1.1 2.7 2 6 2s6-.9 6-2c0-.2-.1-.3-.2-.5-.7.9-3 1.5-5.8 1.5zm0 3c-2.8 0-5.1-.6-5.8-1.5-.1.2-.2.3-.2.5 0 1.1 2.7 2 6 2s6-.9 6-2c0-.2-.1-.3-.2-.5-.7.9-3 1.5-5.8 1.5zm0 3c-2.8 0-5.1-.6-5.8-1.5-.1.2-.2.3-.2.5 0 1.1 2.7 2 6 2s6-.9 6-2c0-.2-.1-.3-.2-.5-.7.9-3 1.5-5.8 1.5z"/> </g> <g fill="#2495de"> <path d="M7 8.2c-.99 0-1.8-.27-1.8-.6v.6c0 .33.81.6 1.8.6s1.8-.27 1.8-.6v-.6c0 .33-.81.6-1.8.6z"/> <path d="M7 7.3c-.99 0-1.8-.27-1.8-.6v.6c0 .33.81.6 1.8.6s1.8-.27 1.8-.6v-.6c0 .33-.81.6-1.8.6zm0 1.8c-.99 0-1.8-.27-1.8-.6v.6c0 .33.81.6 1.8.6s1.8-.27 1.8-.6v-.6c0 .33-.81.6-1.8.6z"/> <path d="M7 10c-.99 0-1.8-.27-1.8-.6v.6c0 .33.81.6 1.8.6s1.8-.27 1.8-.6v-.6c0 .33-.81.6-1.8.6z"/> <path d="M7 10.9c-.99 0-1.8-.27-1.8-.6v.6c0 .33.81.6 1.8.6s1.8-.27 1.8-.6v-.6c0 .33-.81.6-1.8.6z"/> <path d="M7 11.8c-.99 0-1.8-.27-1.8-.6v.6c0 .33.81.6 1.8.6s1.8-.27 1.8-.6v-.6c0 .33-.81.6-1.8.6z"/> </g> <g fill="#5db4ea" transform="matrix(.3 0 0 .3 -.2 -.2)"> <ellipse cx="24" cy="23" rx="6" ry="2"/> <path d="M24 27c-2.8 0-5.1-.6-5.8-1.5-.1.2-.2.3-.2.5 0 1.1 2.7 2 6 2s6-.9 6-2c0-.2-.1-.3-.2-.5-.7.9-3 1.5-5.8 1.5zm0 3c-2.8 0-5.1-.6-5.8-1.5-.1.2-.2.3-.2.5 0 1.1 2.7 2 6 2s6-.9 6-2c0-.2-.1-.3-.2-.5-.7.9-3 1.5-5.8 1.5zm0 3c-2.8 0-5.1-.6-5.8-1.5-.1.2-.2.3-.2.5 0 1.1 2.7 2 6 2s6-.9 6-2c0-.2-.1-.3-.2-.5-.7.9-3 1.5-5.8 1.5zm0 3c-2.8 0-5.1-.6-5.8-1.5-.1.2-.2.3-.2.5 0 1.1 2.7 2 6 2s6-.9 6-2c0-.2-.1-.3-.2-.5-.7.9-3 1.5-5.8 1.5zm0 3c-2.8 0-5.1-.6-5.8-1.5-.1.2-.2.3-.2.5 0 1.1 2.7 2 6 2s6-.9 6-2c0-.2-.1-.3-.2-.5-.7.9-3 1.5-5.8 1.5z"/> </g> </g>
</svg>